<svg width="346" height="348" viewBox="0 0 346 348" fill="none" xmlns="http://www.w3.org/2000/svg">
<g clip-path="url(#clip0_5735_22938)">
<path d="M173.07 348C116.337 348 59.6204 348 2.88786 348C0.96262 348 0 347.016 0 345.048C0 233.421 0 121.778 0 10.1508C0 7.32418 0.139735 4.49758 0.108683 1.67097C0.108683 0.374798 0.543415 0 1.80103 0C18.9108 0.0312332 36.0206 0.0312332 53.1149 0.0312332C149.765 0.0312332 246.431 0.0312332 343.081 0.0312332C346.202 0.0312332 345.969 -0.390415 345.969 2.93592C345.969 116.828 345.969 230.735 345.969 344.627C345.969 348.5 346.435 347.969 342.584 347.969C286.069 347.969 229.569 347.969 173.054 347.969L173.07 348ZM173.287 4.12278C117.486 4.10716 61.6853 4.10716 5.86888 4.10716C4.19206 4.10716 4.17653 4.10716 4.17653 6.09047C4.17653 117.999 4.17653 229.892 4.17653 341.8C4.17653 343.752 4.17653 343.752 6.1794 343.752C96.4173 343.752 186.655 343.752 276.893 343.752C298.04 343.752 319.202 343.752 340.348 343.752C341.539 343.752 342.144 343.174 342.165 342.019C342.165 341.8 342.165 341.582 342.165 341.363C342.165 255.159 342.165 168.956 342.165 82.7367C342.165 57.0786 342.165 31.4206 342.165 5.77814C342.165 4.71621 342.103 4.09155 340.706 4.09155C284.905 4.12278 229.104 4.12278 173.287 4.12278Z" fill="white"/>
<path d="M222.676 84.5488C222.676 93.1692 222.661 101.79 222.676 110.426C222.707 119.483 220.503 127.963 215.876 135.709C207.414 149.889 195.04 158.228 178.567 159.883C163.615 161.382 150.558 156.729 139.751 146.312C130.762 137.645 125.824 126.932 125.188 114.314C124.644 103.539 127.455 93.5908 132.361 84.1272C134.115 80.7384 136.258 77.6151 138.509 74.5542C139.192 73.6172 139.736 73.3986 140.854 74.0389C149.533 79.0049 158.258 83.8773 166.953 88.7809C168.335 89.5618 168.397 89.8272 167.465 91.1078C163.926 95.9333 161.193 101.134 160.06 107.084C159.547 109.77 159.485 112.424 160.168 115.095C161.426 120.03 164.516 123.075 169.468 124.137C172.791 124.855 176.145 124.683 179.359 123.606C185.041 121.701 187.774 117.016 188.239 111.3C188.519 107.833 188.348 104.319 188.348 100.821C188.348 86.4853 188.348 72.1649 188.348 57.8288C188.348 56.3088 189.099 55.5488 190.599 55.5488C200.707 55.5488 210.83 55.5488 220.938 55.5488C222.583 55.5488 222.676 55.6113 222.676 57.251C222.676 66.3555 222.676 75.4756 222.676 84.5801H222.661L222.676 84.5488Z" fill="white"/>
<path d="M95.9201 234.655C87.3962 234.655 78.8568 234.655 70.333 234.655C68.5164 234.655 68.3456 234.561 68.3612 232.703C68.4077 222.802 68.1904 212.885 68.4698 202.984C68.5009 201.86 68.8891 201.61 69.9759 201.626C75.8137 201.704 81.6826 201.907 87.4738 200.985C97.364 199.408 103.994 193.692 107.829 184.494C110.297 178.575 111.136 172.329 111.539 165.989C111.943 159.539 111.695 153.074 111.757 146.624C111.772 144.719 111.788 144.703 113.682 144.703C117.548 144.703 121.414 144.703 125.296 144.672C126.196 144.672 126.786 145.062 127.283 145.734C133.866 154.479 142.203 160.913 152.342 164.942C153.305 165.333 153.677 165.879 153.615 166.941C152.823 181.996 150.246 196.628 143.616 210.293C139.021 219.756 132.531 227.658 124.116 233.968C123.308 234.577 122.439 234.67 121.507 234.655C112.983 234.655 104.444 234.655 95.9201 234.655Z" fill="white"/>
<path d="M277.576 201.174C277.576 211.652 277.576 222.131 277.576 232.625C277.576 234.499 277.576 234.546 275.713 234.624C273.865 234.702 272.017 234.656 270.185 234.671C254.582 234.671 238.962 234.671 223.358 234.687C221.48 234.687 221.371 234.593 221.371 232.641C221.371 222.475 221.371 212.293 221.371 202.126C221.371 201.689 221.449 201.252 221.464 200.799C221.495 199.955 221.946 199.627 222.753 199.674C223.979 199.737 225.206 199.846 226.433 199.831C232.146 199.784 237.86 199.721 243.573 199.659C243.884 199.659 244.195 199.643 244.49 199.612C248.744 199.378 250.886 196.738 250.514 192.475C250.157 188.321 248.619 184.682 246.244 181.356C241.586 174.844 235.422 170.05 228.746 165.849C228.032 165.412 227.302 164.99 226.588 164.568C225.454 163.897 225.408 163.616 226.324 162.71C229.522 159.555 232.736 156.401 235.935 153.231C240.561 148.639 245.188 144.032 249.784 139.394C250.374 138.801 250.731 138.895 251.337 139.316C260.357 145.672 268.089 153.324 274.269 162.507C275.231 163.928 276.085 165.427 276.986 166.895C277.545 167.801 277.591 168.816 277.591 169.847C277.591 180.279 277.591 190.726 277.591 201.158L277.576 201.174Z" fill="white"/>
<path d="M277.607 94.5591C277.607 106.849 277.607 119.14 277.607 131.43C277.607 133.366 277.607 133.366 275.729 133.366C262.858 133.366 249.971 133.366 237.1 133.366C235.283 133.366 235.268 133.366 235.268 131.524C235.268 106.849 235.268 82.1907 235.268 57.5165C235.268 55.5488 235.299 55.5488 237.286 55.5488C250.126 55.5488 262.951 55.5488 275.791 55.5488C277.545 55.5488 277.607 55.5957 277.607 57.4384C277.607 69.8224 277.607 82.1907 277.607 94.5747V94.5591Z" fill="white"/>
<path d="M208.765 196.191C208.765 208.356 208.765 220.522 208.765 232.687C208.765 234.639 208.749 234.67 206.762 234.67C194.015 234.67 181.253 234.67 168.506 234.67C166.689 234.67 166.643 234.639 166.643 232.828C166.643 211.995 166.643 191.163 166.643 170.33C166.643 168.706 166.705 168.659 168.257 168.784C181.998 169.83 194.729 166.816 206.234 159.039C206.421 158.914 206.591 158.774 206.793 158.68C207.383 158.415 207.787 157.415 208.392 157.743C209.122 158.134 208.734 159.117 208.734 159.82C208.749 171.939 208.734 184.057 208.734 196.176L208.765 196.191Z" fill="white"/>
<path d="M151.101 267.761C151.101 261.39 151.101 255.018 151.101 248.662C151.101 246.726 151.194 246.632 153.103 246.648C159.205 246.71 165.323 246.617 171.424 246.898C177.371 247.163 182.758 249.053 186.609 253.972C188.86 256.861 189.947 260.234 190.459 263.857C191.111 268.464 190.77 272.977 189.078 277.288C186.329 284.315 180.74 287.594 173.598 288.625C172.154 288.828 170.71 288.906 169.266 288.906C163.816 288.906 158.367 288.906 152.902 288.906C151.147 288.906 151.101 288.859 151.101 287.142C151.101 280.692 151.101 274.227 151.101 267.777V267.761ZM165.229 267.839C165.229 270.135 165.229 272.431 165.229 274.742C165.229 276.835 165.229 276.866 167.372 276.788C168.552 276.741 169.747 276.663 170.912 276.491C173.21 276.163 174.778 274.82 175.539 272.665C176.595 269.698 176.532 266.653 175.787 263.654C175.042 260.656 172.93 259.094 169.841 258.938C168.785 258.876 167.729 258.969 166.673 258.876C165.602 258.797 165.183 259.157 165.214 260.281C165.276 262.795 165.229 265.325 165.229 267.839Z" fill="white"/>
<path d="M237.907 267.856C237.907 261.359 237.922 254.847 237.891 248.351C237.891 247.101 238.295 246.57 239.568 246.633C245.934 246.93 252.315 246.695 258.681 246.82C262.345 246.898 265.838 247.632 269.006 249.6C272.654 251.849 274.533 255.238 274.937 259.423C275.201 262.156 275.139 264.904 274.129 267.543C273.167 270.058 271.661 272.135 269.347 273.525C268.416 274.087 268.354 274.508 268.99 275.352C271.894 279.24 274.75 283.176 277.607 287.095C277.933 287.548 278.523 287.986 278.197 288.595C277.902 289.141 277.235 288.891 276.738 288.891C272.685 288.891 268.649 288.876 264.596 288.907C263.587 288.907 262.997 288.517 262.454 287.704C260.156 284.253 257.796 280.833 255.451 277.413C255.001 276.757 253.185 276.351 252.47 276.71C251.896 276.992 252.051 277.538 252.036 277.991C252.036 281.083 251.989 284.191 252.036 287.283C252.051 288.47 251.694 288.923 250.452 288.907C246.757 288.844 243.062 288.86 239.366 288.907C238.202 288.923 237.845 288.485 237.845 287.345C237.876 280.849 237.86 274.337 237.86 267.84L237.907 267.856ZM252.051 262.125C252.051 263.015 252.051 263.889 252.051 264.779C252.051 265.357 252.284 265.716 252.905 265.716C254.66 265.716 256.43 265.794 258.168 265.623C259.985 265.435 260.901 264.077 260.901 262.015C260.901 260.079 260.063 259.017 258.199 258.72C257.346 258.58 256.445 258.595 255.576 258.58C253.236 258.569 252.061 259.756 252.051 262.14V262.125Z" fill="white"/>
<path d="M90.5024 246.633C92.5674 246.633 94.6324 246.665 96.6974 246.633C97.6289 246.618 98.1258 246.977 98.4518 247.867C103.203 260.798 107.985 273.728 112.751 286.643C112.876 286.971 112.984 287.315 113.077 287.658C113.31 288.47 113.093 288.939 112.161 288.939C108.156 288.923 104.165 288.923 100.16 288.939C99.4766 288.939 99.1195 288.626 98.9331 287.986C98.5916 286.799 98.1879 285.628 97.8774 284.425C97.6755 283.676 97.3029 283.332 96.4955 283.332C92.5364 283.364 88.5772 283.379 84.6336 283.364C83.7952 283.364 83.3449 283.676 83.1431 284.519C82.8791 285.597 82.4599 286.627 82.196 287.689C81.9786 288.548 81.5439 288.954 80.6433 288.954C76.6842 288.923 72.725 288.954 68.7814 288.939C67.5859 288.939 67.4772 288.658 67.974 287.299C70.07 281.677 72.1661 276.039 74.2776 270.417C77.0102 263.093 79.7739 255.785 82.4444 248.445C82.9257 247.133 83.5002 246.524 84.9751 246.665C86.8072 246.821 88.6704 246.696 90.5024 246.696V246.633ZM90.5956 260.86C89.7106 264.624 88.3288 268.184 87.2109 271.838C86.9625 272.619 87.3817 272.869 88.1114 272.869C89.8193 272.869 91.5272 272.869 93.2506 272.932C94.0269 272.963 94.1977 272.635 93.9803 271.963C93.7474 271.245 93.4835 270.542 93.2661 269.824C92.3656 266.857 91.1235 263.983 90.6111 260.86H90.5956Z" fill="white"/>
<path d="M212.568 246.664C214.68 246.664 216.791 246.711 218.887 246.649C219.85 246.617 220.083 247.226 220.331 247.898C221.961 252.286 223.592 256.674 225.222 261.063C228.389 269.636 231.556 278.21 234.724 286.783C234.863 287.158 235.003 287.533 235.112 287.908C235.298 288.548 235.112 288.923 234.367 288.923C230.283 288.923 226.184 288.907 222.101 288.923C221.278 288.923 220.952 288.454 220.766 287.736C220.455 286.58 220.083 285.456 219.803 284.285C219.632 283.613 219.275 283.348 218.592 283.348C214.555 283.363 210.503 283.363 206.466 283.348C205.721 283.348 205.348 283.676 205.146 284.347C204.805 285.487 204.355 286.596 204.091 287.767C203.873 288.688 203.361 288.938 202.492 288.938C198.75 288.907 195.023 288.938 191.282 288.938C189.589 288.938 189.403 288.688 190.008 287.08C191.996 281.739 193.999 276.414 195.986 271.073C198.874 263.327 201.762 255.597 204.603 247.851C204.914 246.992 205.379 246.68 206.249 246.68C208.36 246.711 210.472 246.68 212.583 246.68C212.583 246.68 212.583 246.68 212.583 246.695L212.568 246.664ZM212.366 260.922C212.04 263.312 211.202 265.529 210.472 267.793C210.053 269.09 209.649 270.401 209.199 271.682C208.935 272.447 209.059 272.884 209.96 272.884C211.667 272.884 213.375 272.884 215.083 272.884C215.875 272.884 216.092 272.494 215.86 271.776C214.711 268.168 213.406 264.623 212.366 260.922Z" fill="white"/>
<path d="M115.98 267.856C115.98 261.407 115.98 254.941 115.98 248.492C115.98 246.743 116.089 246.633 117.875 246.633C121.353 246.633 124.815 246.68 128.293 246.618C129.504 246.602 129.907 246.992 129.907 248.211C129.876 256.971 129.907 265.717 129.892 274.478C129.892 276.336 129.892 276.336 131.677 276.336C136.428 276.336 141.179 276.367 145.915 276.305C147.172 276.289 147.623 276.68 147.592 277.96C147.514 281.146 147.53 284.332 147.592 287.517C147.607 288.657 147.141 288.923 146.101 288.923C136.568 288.892 127.02 288.892 117.487 288.923C116.307 288.923 115.98 288.486 115.98 287.361C116.012 280.865 115.996 274.368 115.996 267.856H115.98Z" fill="white"/>
</g>
<defs>
<clipPath id="clip0_5735_22938">
<rect width="346" height="348" fill="white"/>
</clipPath>
</defs>
</svg>
