<svg width="437" height="113" viewBox="0 0 437 113" fill="none" xmlns="http://www.w3.org/2000/svg">
<path d="M74.7822 30.2508C67.1739 29.7248 60.9505 27.5869 55.1654 25.1776V18.1531C55.1654 11.7226 58.7066 8.05764 64.9475 8.05764C71.1884 8.05764 74.7997 11.7226 74.7997 18.1531V30.2508H74.7822ZM71.539 2.03427C69.4879 1.32164 67.2966 0.965332 64.93 0.965332C62.5633 0.965332 60.3895 1.32164 58.391 2.03427C56.2172 2.79779 54.3414 3.91763 52.7812 5.39378C49.4153 8.46485 47.6798 12.8933 47.6798 18.1362V21.8011C43.9983 20.1553 39.1423 18.6113 35.3381 17.5593C30.114 16.0831 25.1879 15.7268 20.2092 16.3716L21.261 23.396C24.8723 22.9209 28.1681 23.1585 31.3587 23.8711V36.4438C29.7459 36.9698 27.0637 37.6315 23.3822 37.6315C13.9507 37.6315 7.95521 31.693 8.25323 22.5986C8.4636 16.3886 12.8112 10.8742 19.1924 9.38108C24.2412 8.19338 29.0622 9.16051 32.7962 11.9601L37.4594 6.41182C35.4609 4.93567 33.2871 3.81583 30.9905 2.98443C28.5538 2.22091 26.0118 1.79673 23.3822 1.79673C19.9637 1.79673 16.7731 2.32271 13.9156 3.44255C11.1107 4.51149 8.67397 6.10641 6.693 8.10854C2.83625 12.011 0.785156 17.3727 0.785156 23.2264C0.785156 29.0801 2.83625 34.4926 6.71053 38.3442C8.70903 40.3463 11.1283 41.9412 13.9332 43.0102C16.8082 44.13 19.9813 44.7239 23.3997 44.7239C31.8145 44.7239 36.5478 42.1279 37.0386 41.8394L38.8443 40.8384V26.3823C41.7719 27.3833 44.1386 28.2147 47.6973 29.6909V44.3336H55.1654V32.8807C60.8278 35.0695 67.1914 36.885 74.7822 37.3601V44.3166H82.2503V18.1701C82.2503 12.9103 80.4446 8.48182 77.1488 5.42772C75.536 3.95157 73.6602 2.83173 71.539 2.0682" fill="white"/>
<path d="M139.662 27.1114H136.173V9.22793H139.381C143.781 9.22793 147.814 11.9597 148.848 16.0148C150.338 21.8516 145.657 27.1114 139.662 27.1114ZM139.662 2.15259H128.705V34.2037H139.662C144.202 34.2037 148.445 32.5579 151.618 29.4868C154.791 26.4836 156.596 22.4624 156.596 18.2206C156.596 13.9788 154.791 9.90662 151.618 6.88645C148.445 3.86628 144.202 2.16956 139.662 2.16956" fill="white"/>
<path d="M106.514 24.9395H97.556V9.2278H106.777C111.826 9.2278 115.753 13.4696 114.964 18.3222C114.333 22.1908 110.651 24.9225 106.514 24.9225M147.448 40.8038C145.327 41.4486 141.786 42.28 136.79 42.28C128.007 42.28 120.837 39.8028 115.49 34.8992C114.052 33.5928 113.001 32.3033 112.124 31.1156C114.438 30.369 116.489 29.0795 118.242 27.3149C120.118 25.4485 121.485 23.124 122.099 20.5959C123.379 15.4208 121.801 10.161 117.927 6.49608C114.929 3.71345 111.02 2.1355 106.777 2.1355H90.0879V44.2821H97.556V32.0148H104.726C105.778 33.8982 107.584 36.6129 110.459 39.3277C113.386 42.1103 116.875 44.2821 120.732 45.8261C125.465 47.7774 130.882 48.7785 136.807 48.7785C141.786 48.7785 146.274 48.1337 150.131 46.7763C153.111 45.7752 154.618 44.7063 154.934 44.5366L150.779 39.3616C150.586 39.4804 149.482 40.1252 147.466 40.8038" fill="white"/>
<path d="M150.762 39.3281V39.3622L150.832 39.3281H150.762Z" fill="white"/>
<path d="M170.532 25.1093H190.219V18.0339H170.532V9.22793H194.444V2.15259H163.047V44.2992H195.075L196.32 37.2069H170.532V25.1093Z" fill="white"/>
<path d="M232.508 28.6561L203.793 1.271V44.2999H211.279V18.4418L239.994 45.7761V2.15329H232.508V28.6561Z" fill="white"/>
<path d="M255.765 2.15259H248.297V44.2992H255.765V2.15259Z" fill="white"/>
<path d="M428.215 2.15259L419.309 16.5578L410.386 2.15259H401.551L415.558 23.3956V44.2822H423.043V23.3956L436.998 2.15259H428.215Z" fill="white"/>
<path d="M394.073 24.7192H372.896V18.102C372.896 9.00756 380.311 8.00649 383.484 8.00649C386.657 8.00649 394.073 9.00756 394.073 18.102V24.7192ZM390.269 2.00009C388.218 1.28746 385.904 0.931152 383.484 0.931152C381.065 0.931152 378.751 1.28746 376.7 2.00009C374.456 2.76361 372.457 3.83255 370.775 5.3087C367.286 8.37977 365.41 12.8082 365.41 18.119V44.2655H372.878V31.8115H394.055V44.2655H401.523V18.119C401.523 12.8082 399.648 8.37977 396.159 5.3087C394.476 3.83255 392.478 2.78058 390.234 2.00009" fill="white"/>
<path d="M291.6 24.3462H270.423V17.729C270.423 8.63452 277.839 7.63346 281.012 7.63346C284.185 7.63346 291.6 8.63452 291.6 17.729V24.3462ZM287.796 2.03427C285.745 1.32164 283.431 0.965332 281.012 0.965332C278.592 0.965332 276.278 1.32164 274.227 2.03427C271.983 2.79779 269.985 3.86673 268.302 5.34288C264.813 8.41395 262.938 12.8424 262.938 18.1531V44.2997H270.406V31.8457H291.583V44.2997H299.051V18.1531C299.051 12.8424 297.175 8.41395 293.686 5.34288C292.003 3.86673 290.005 2.79779 287.761 2.03427" fill="white"/>
<path d="M347.065 37.1221H333.216V25.9407H347.065C350.116 25.9407 352.605 28.2482 352.605 31.5738C352.605 34.8994 350.098 37.1221 347.065 37.1221ZM333.216 13.9618V9.24489H344.12C346.925 9.24489 349.169 11.5524 349.222 14.1484C349.152 16.7444 346.925 18.8653 344.12 18.8653H333.216V13.9618ZM325.748 44.2992H346.575C352.149 44.2992 355.48 41.8559 357.479 39.0903C360.757 34.5431 360.757 28.4348 357.479 23.8876C356.777 22.9035 355.883 21.9873 354.796 21.2068C354.867 21.122 354.919 21.0371 354.989 20.9523C358.005 16.7614 358.005 11.1452 354.989 6.95432C353.166 4.40923 350.081 2.15259 344.944 2.15259H325.766V44.2992H325.748Z" fill="white"/>
<path d="M136.667 108.538C138.473 108.538 139.472 108.097 140.121 107.401C140.734 106.79 141.085 105.976 141.085 105.077C141.085 104.177 140.734 103.363 140.121 102.752C139.472 102.056 138.473 101.632 136.667 101.632H131.478V108.555H136.667V108.538ZM131.478 97.2547H135.125C136.737 97.2547 137.474 96.8984 138 96.3385C138.455 95.8634 138.771 95.2186 138.771 94.523C138.771 93.8273 138.455 93.1826 138 92.7075C137.456 92.1645 136.737 91.7912 135.125 91.7912H131.478V97.2547ZM135.44 87.4307C138.473 87.4307 140.156 88.1263 141.471 89.2122C142.961 90.4508 143.96 92.2663 143.96 94.3533C143.96 96.0331 143.119 97.7298 142.224 98.6121C144.609 99.7489 146.257 102.294 146.257 105.127C146.257 107.282 145.292 109.234 143.802 110.625C142.312 112.05 140.226 112.915 136.772 112.915H126.289V87.4307H135.44Z" fill="white"/>
<path d="M161.066 101.361V112.898H155.877V101.361L146.656 87.4307H152.582L158.489 96.3894L164.362 87.4307H170.288L161.066 101.361Z" fill="white"/>
<path d="M191.149 102.905H197.986L194.567 95.3713L191.149 102.905ZM181.244 112.915L192.762 87.4307H196.408L207.926 112.915H202.509L199.967 107.282H189.168L186.626 112.915H181.209H181.244Z" fill="white"/>
<path d="M211.98 87.4307H217.17V108.538H228.494V112.898H211.98V87.4307Z" fill="white"/>
<path d="M249.385 94.6421C247.895 92.8605 245.703 91.8086 242.513 91.8086H238.673V108.555H242.513C245.703 108.555 247.895 107.503 249.385 105.722C250.612 104.263 251.348 102.294 251.348 100.19C251.348 98.0865 250.612 96.1183 249.385 94.6591M241.934 87.448C246.194 87.448 248.999 88.3303 251.19 89.8573C254.504 92.1819 256.537 95.9656 256.537 100.19C256.537 104.415 254.504 108.199 251.19 110.523C248.999 112.05 246.194 112.933 241.934 112.933H233.484V87.448H241.934Z" fill="white"/>
<path d="M267.6 102.905H274.437L271.019 95.3713L267.6 102.905ZM257.695 112.915L269.213 87.4307H272.859L284.377 112.915H278.96L276.418 107.282H265.619L263.077 112.915H257.66H257.695Z" fill="white"/>
<path d="M297.926 97.2543C299.433 97.2543 300.082 96.9659 300.538 96.4908C300.993 96.0157 301.309 95.2861 301.309 94.5565C301.309 93.793 300.993 93.0634 300.538 92.5883C300.082 92.1133 299.433 91.7909 297.926 91.7909H293.631V97.2543H297.926ZM293.631 101.615V112.898H288.441V87.4133H298.241C301.011 87.4133 302.782 88.1429 304.114 89.2967C305.569 90.6032 306.498 92.4696 306.498 94.5056C306.498 96.5417 305.569 98.3911 304.114 99.7146C303.378 100.376 302.501 100.885 301.432 101.208L311.494 112.898H305.078L295.506 101.615H293.631Z" fill="white"/>
</svg>
