<svg xmlns="http://www.w3.org/2000/svg" width="216" height="56" viewBox="0 0 216 56" fill="none">
  <path d="M36.641 14.6592C32.8736 14.3962 29.792 13.3273 26.9274 12.1226V8.61042C26.9274 5.39516 28.6809 3.56272 31.7712 3.56272C34.8615 3.56272 36.6497 5.39516 36.6497 8.61042V14.6592H36.641ZM35.0351 0.551064C34.0195 0.194756 32.9344 0.0166016 31.7625 0.0166016C30.5906 0.0166016 29.5142 0.194756 28.5246 0.551064C27.4482 0.932823 26.5194 1.49274 25.7468 2.2308C24.0801 3.76632 23.2207 5.98053 23.2207 8.60194V10.4344C21.3978 9.61148 18.9933 8.83948 17.1096 8.3135C14.5227 7.57543 12.0835 7.39727 9.61816 7.71965L10.139 11.2318C11.9272 10.9943 13.5592 11.1131 15.139 11.4694V17.7557C14.3404 18.0187 13.0123 18.3495 11.1894 18.3495C6.51917 18.3495 3.55038 15.3803 3.69796 10.8331C3.80212 7.72813 5.95492 4.97098 9.11468 4.22443C11.6147 3.63059 14.0019 4.11415 15.8509 5.51393L18.1599 2.73982C17.1703 2.00175 16.0939 1.44184 14.9568 1.02614C13.7501 0.644383 12.4915 0.432295 11.1894 0.432295C9.49663 0.432295 7.91675 0.695284 6.5018 1.2552C5.1129 1.78966 3.90629 2.58711 2.92538 3.58817C1.01564 5.53938 0 8.22018 0 11.147C0 14.0738 1.01564 16.7801 2.93406 18.7058C3.92365 19.7069 5.12158 20.5043 6.51049 21.0388C7.93411 21.5987 9.50531 21.8956 11.198 21.8956C15.3647 21.8956 17.7085 20.5977 17.9516 20.4534L18.8457 19.9529V12.7249C20.2954 13.2255 21.4672 13.6412 23.2294 14.3792V21.7005H26.9274V15.9741C29.7312 17.0685 32.8823 17.9762 36.641 18.2138V21.692H40.339V8.6189C40.339 5.98901 39.4449 3.77481 37.8129 2.24777C37.0143 1.5097 36.0854 0.94979 35.0351 0.568031" fill="#E3E3E3"/>
  <path d="M68.7692 13.0906H67.0417V4.14896H68.6303C70.8091 4.14896 72.8057 5.51481 73.3178 7.54237C74.0557 10.4607 71.7379 13.0906 68.7692 13.0906ZM68.7692 0.611328H63.3438V16.6367H68.7692C71.0174 16.6367 73.1182 15.8138 74.6894 14.2783C76.2606 12.7767 77.1547 10.7661 77.1547 8.64523C77.1547 6.52435 76.2606 4.4883 74.6894 2.97823C73.1182 1.46816 71.0174 0.619812 68.7692 0.619812" fill="#E3E3E3"/>
  <path d="M52.3525 12.0044H47.9167V4.14866H52.4827C54.9828 4.14866 56.9272 6.26954 56.5366 8.69583C56.2241 10.6301 54.4012 11.9959 52.3525 11.9959M72.6218 19.9365C71.5715 20.2589 69.818 20.6746 67.344 20.6746C62.995 20.6746 59.4446 19.436 56.797 16.9842C56.0852 16.331 55.5644 15.6863 55.1303 15.0924C56.2762 14.7191 57.2918 14.0744 58.1599 13.1921C59.0887 12.2589 59.7658 11.0967 60.0696 9.83262C60.7033 7.24514 59.922 4.61525 58.0036 2.78281C56.5192 1.39151 54.5834 0.602539 52.4827 0.602539H44.2188V21.6756H47.9167V15.542H51.4671C51.9879 16.4837 52.882 17.8411 54.3057 19.1984C55.7553 20.5897 57.4828 21.6756 59.3925 22.4476C61.7363 23.4232 64.4186 23.9238 67.3527 23.9238C69.818 23.9238 72.0402 23.6014 73.95 22.9227C75.4257 22.4222 76.1722 21.8877 76.3285 21.8029L74.2711 19.2154C74.1757 19.2748 73.6288 19.5972 72.6305 19.9365" fill="#E3E3E3"/>
  <path d="M74.2617 19.1982V19.2152L74.2964 19.1982H74.2617Z" fill="#E3E3E3"/>
  <path d="M84.0543 12.0895H93.8027V8.55191H84.0543V4.14896H95.8947V0.611328H80.3477V21.6844H96.2072L96.8235 18.1383H84.0543V12.0895Z" fill="#E3E3E3"/>
  <path d="M114.742 13.8623L100.523 0.169922V21.6842H104.23V8.75526L118.449 22.4222V0.611066H114.742V13.8623Z" fill="#E3E3E3"/>
  <path d="M126.26 0.611328H122.562V21.6844H126.26V0.611328Z" fill="#E3E3E3"/>
  <path d="M211.652 0.611328L207.243 7.81385L202.824 0.611328H198.449L205.385 11.2327V21.6759H209.092V11.2327L216.001 0.611328H211.652Z" fill="#E3E3E3"/>
  <path d="M194.744 11.8939H184.257V8.58533C184.257 4.03816 187.929 3.53763 189.501 3.53763C191.072 3.53763 194.744 4.03816 194.744 8.58533V11.8939ZM192.86 0.534463C191.844 0.178154 190.698 0 189.501 0C188.303 0 187.157 0.178154 186.141 0.534463C185.03 0.916221 184.04 1.45068 183.207 2.18875C181.48 3.72427 180.551 5.93847 180.551 8.59382V21.6669H184.249V15.44H194.735V21.6669H198.433V8.59382C198.433 5.93847 197.504 3.72427 195.777 2.18875C194.943 1.45068 193.954 0.924705 192.843 0.534463" fill="#E3E3E3"/>
  <path d="M144.001 11.7069H133.515V8.39833C133.515 3.85116 137.187 3.35063 138.758 3.35063C140.33 3.35063 144.001 3.85116 144.001 8.39833V11.7069ZM142.118 0.551064C141.102 0.194756 139.956 0.0166016 138.758 0.0166016C137.56 0.0166016 136.415 0.194756 135.399 0.551064C134.288 0.932823 133.298 1.46729 132.465 2.20535C130.737 3.74087 129.809 5.95507 129.809 8.61042V21.6835H133.507V15.4566H143.993V21.6835H147.691V8.61042C147.691 5.95507 146.762 3.74087 145.034 2.20535C144.201 1.46729 143.212 0.932823 142.1 0.551064" fill="#E3E3E3"/>
  <path d="M171.47 18.0959H164.612V12.5052H171.47C172.98 12.5052 174.213 13.659 174.213 15.3218C174.213 16.9845 172.971 18.0959 171.47 18.0959ZM164.612 6.51587V4.15744H170.011C171.4 4.15744 172.511 5.3112 172.537 6.60919C172.503 7.90717 171.4 8.96761 170.011 8.96761H164.612V6.51587ZM160.914 21.6844H171.227C173.987 21.6844 175.636 20.4628 176.626 19.08C178.249 16.8064 178.249 13.7523 176.626 11.4787C176.279 10.9867 175.836 10.5286 175.298 10.1383C175.333 10.0959 175.359 10.0535 175.393 10.0111C176.886 7.91565 176.886 5.1076 175.393 3.01217C174.491 1.73964 172.963 0.611328 170.419 0.611328H160.923V21.6844H160.914Z" fill="#E3E3E3"/>
  <path d="M67.2835 53.8025C68.1776 53.8025 68.6724 53.582 68.9936 53.2341C69.2974 52.9287 69.471 52.5215 69.471 52.0719C69.471 51.6223 69.2974 51.2151 68.9936 50.9097C68.6724 50.5618 68.1776 50.3497 67.2835 50.3497H64.714V53.811H67.2835V53.8025ZM64.714 48.161H66.5196C67.3182 48.161 67.6828 47.9828 67.9432 47.7029C68.1689 47.4653 68.3252 47.143 68.3252 46.7951C68.3252 46.4473 68.1689 46.1249 67.9432 45.8874C67.6741 45.6159 67.3182 45.4293 66.5196 45.4293H64.714V48.161ZM66.6758 43.249C68.1776 43.249 69.0109 43.5968 69.662 44.1398C70.3998 44.7591 70.8946 45.6668 70.8946 46.7103C70.8946 47.5502 70.478 48.3985 70.0352 48.8397C71.2158 49.4081 72.0318 50.6806 72.0318 52.0973C72.0318 53.1748 71.5544 54.1504 70.8165 54.846C70.0786 55.5586 69.0456 55.9913 67.3356 55.9913H62.1445V43.249H66.6758Z" fill="#E3E3E3"/>
  <path d="M79.3699 50.214V55.9828H76.8004V50.214L72.2344 43.249H75.1684L78.0938 47.7283L81.0018 43.249H83.9359L79.3699 50.214Z" fill="#E3E3E3"/>
  <path d="M94.2618 50.986H97.6472L95.9545 47.2193L94.2618 50.986ZM89.3572 55.9913L95.0604 43.249H96.866L102.569 55.9913H99.8868L98.6281 53.1748H93.2809L92.0222 55.9913H89.3398H89.3572Z" fill="#E3E3E3"/>
  <path d="M104.578 43.249H107.148V53.8025H112.755V55.9828H104.578V43.249Z" fill="#E3E3E3"/>
  <path d="M123.1 46.8548C122.362 45.9641 121.277 45.4381 119.697 45.4381H117.796V53.8113H119.697C121.277 53.8113 122.362 53.2853 123.1 52.3946C123.708 51.665 124.072 50.6809 124.072 49.6289C124.072 48.577 123.708 47.5929 123.1 46.8633M119.411 43.2578C121.52 43.2578 122.909 43.699 123.994 44.4625C125.635 45.6247 126.642 47.5165 126.642 49.6289C126.642 51.7413 125.635 53.6332 123.994 54.7954C122.909 55.5589 121.52 56.0001 119.411 56.0001H115.227V43.2578H119.411Z" fill="#E3E3E3"/>
  <path d="M132.117 50.986H135.503L133.81 47.2193L132.117 50.986ZM127.213 55.9913L132.916 43.249H134.721L140.425 55.9913H137.742L136.484 53.1748H131.136L129.878 55.9913H127.195H127.213Z" fill="#E3E3E3"/>
  <path d="M147.138 48.1617C147.884 48.1617 148.205 48.0174 148.431 47.7799C148.657 47.5424 148.813 47.1776 148.813 46.8128C148.813 46.431 148.657 46.0662 148.431 45.8287C148.205 45.5911 147.884 45.43 147.138 45.43H145.011V48.1617H147.138ZM145.011 50.3419V55.9835H142.441V43.2412H147.294C148.665 43.2412 149.542 43.606 150.202 44.1829C150.922 44.8361 151.382 45.7693 151.382 46.7873C151.382 47.8054 150.922 48.7301 150.202 49.3918C149.837 49.7226 149.403 49.9771 148.874 50.1383L153.856 55.9835H150.679L145.94 50.3419H145.011Z" fill="#E3E3E3"/>
</svg>