<svg xmlns="http://www.w3.org/2000/svg" width="42" height="42" viewBox="0 0 42 42" fill="none">
<path d="M0.00440393 20.9353C-0.180259 9.56921 9.59055 -0.0617318 21.1067 0.000297979C32.3499 0.0606954 42.0505 9.50391 41.9998 21.1051C41.9508 32.4908 32.3483 42.0908 20.8142 41.9994C9.38466 41.9047 -0.235822 32.295 0.00440393 20.9353ZM17.2811 29.7093C17.3105 29.884 17.1536 30.199 17.4445 30.3084C17.6994 30.4014 17.8922 30.1598 18.0671 29.9966C18.7437 29.3649 19.4513 28.7609 20.0739 28.0802C20.5641 27.548 20.9269 27.6297 21.4466 28.028C22.8716 29.1216 24.326 30.1762 25.7837 31.2241C26.7397 31.9097 27.4179 31.6583 27.7154 30.5173C27.9066 29.7811 28.0422 29.0319 28.2056 28.2875C29.1861 23.6614 30.1666 19.0364 31.1472 14.4124C31.4168 13.1294 30.7876 12.5874 29.5456 12.9939C29.3642 13.0527 29.1877 13.1261 29.0096 13.1947C25.3055 14.6214 21.598 16.0486 17.8873 17.4764C15.1452 18.5331 12.4046 19.5941 9.66573 20.6595C9.27189 20.8129 8.77347 20.9647 8.79635 21.5067C8.81923 22.0486 9.3291 22.0715 9.70006 22.1923C11.0483 22.6232 12.4112 23.0084 13.7512 23.459C13.9994 23.5582 14.2686 23.5933 14.5339 23.561C14.7993 23.5288 15.0522 23.4303 15.2694 23.2745C18.8646 20.9762 22.4925 18.7039 26.1089 16.4333C26.3835 16.2603 26.6499 16.0464 26.9963 16.053C27.3428 16.0595 27.4604 16.2162 27.2512 16.5214C27.1322 16.67 26.9968 16.8047 26.8476 16.923C24.0825 19.426 21.318 21.9256 18.5541 24.4221C18.1651 24.7763 17.6406 25.0456 17.5932 25.6774C17.4935 27.0045 17.3873 28.33 17.2811 29.7093Z" fill="white"/>
</svg>