<svg xmlns="http://www.w3.org/2000/svg" width="42" height="42" viewBox="0 0 42 42" fill="none">
  <path d="M41.9655 19.7615C41.2516 7.58176 30.186 -1.80502 17.4406 0.294939C8.66378 1.74391 1.62971 8.86271 0.264885 17.6405C-0.533012 22.7224 0.516899 27.5313 2.8056 31.5002L0.936814 38.4511C0.516868 40.026 1.96564 41.454 3.51944 41.013L10.3646 39.1231C13.4722 40.95 17.1047 42 20.9892 42C32.8317 42 42.6584 31.5632 41.9655 19.7615ZM31.2569 28.8123C31.0679 29.1903 30.8369 29.5473 30.5429 29.8833C30.018 30.4503 29.4511 30.8703 28.8211 31.1223C28.1912 31.3952 27.4984 31.5213 26.7634 31.5213C25.6926 31.5213 24.5377 31.2693 23.3409 30.7443C22.123 30.2193 20.9263 29.5263 19.7294 28.6653C18.5116 27.7833 17.3777 26.7963 16.2858 25.7254C15.194 24.6334 14.228 23.4784 13.3462 22.2814C12.4853 21.0844 11.7924 19.8875 11.2885 18.6905C10.7845 17.4935 10.5326 16.3386 10.5326 15.2466C10.5326 14.5326 10.6586 13.8396 10.9105 13.2096C11.1625 12.5587 11.5615 11.9707 12.1284 11.4457C12.8003 10.7737 13.5352 10.4587 14.3121 10.4587C14.606 10.4587 14.8999 10.5217 15.1729 10.6477C15.4459 10.7737 15.6979 10.9627 15.8869 11.2357L18.3225 14.6796C18.5115 14.9526 18.6585 15.1836 18.7425 15.4146C18.8475 15.6456 18.8895 15.8556 18.8895 16.0656C18.8895 16.3175 18.8055 16.5696 18.6585 16.8216C18.5115 17.0736 18.3225 17.3255 18.0705 17.5775L17.2726 18.4175C17.1466 18.5435 17.1047 18.6695 17.1047 18.8375C17.1047 18.9215 17.1257 19.0055 17.1467 19.0895C17.1886 19.1735 17.2097 19.2365 17.2307 19.2995C17.4197 19.6565 17.7556 20.0975 18.2175 20.6434C18.7005 21.1894 19.2045 21.7564 19.7504 22.3024C20.3174 22.8694 20.8633 23.3734 21.4302 23.8564C21.9761 24.3184 22.438 24.6334 22.7949 24.8224C22.8579 24.8434 22.921 24.8853 22.984 24.9063C23.068 24.9483 23.1519 24.9484 23.2569 24.9484C23.4459 24.9484 23.5719 24.8854 23.6979 24.7594L24.4957 23.9614C24.7687 23.6884 25.0207 23.4994 25.2517 23.3734C25.5037 23.2264 25.7346 23.1424 26.0076 23.1424C26.2175 23.1424 26.4275 23.1844 26.6585 23.2894C26.8895 23.3944 27.1414 23.5204 27.3933 23.7094L30.879 26.1873C31.1519 26.3763 31.3408 26.6074 31.4668 26.8594C31.5718 27.1323 31.6348 27.3843 31.6348 27.6783C31.5088 28.0353 31.4249 28.4343 31.2569 28.8123Z" fill="white"/>
</svg>