<svg xmlns="http://www.w3.org/2000/svg" width="21" height="19" viewBox="0 0 21 19" fill="none">
  <path d="M11.3628 14.9302L11.0344 15.1334C10.822 15.2649 10.5534 15.2649 10.341 15.1334L10.0126 14.9302L4.78269 11.6914L3.80768 12.2952C3.59972 12.424 3.59973 12.7265 3.80769 12.8553L10.1096 16.7578C10.4638 16.9771 10.9116 16.9771 11.2658 16.7578L17.5677 12.8553C17.7757 12.7265 17.7757 12.424 17.5677 12.2952L16.5927 11.6914L11.3628 14.9302Z" fill="#868686"/>
  <path d="M15.0468 9.27156L13.8658 10.003L11.3628 11.5527L10.9768 11.7918C10.7997 11.9016 10.5757 11.9016 10.3986 11.7918L10.0126 11.5527L7.50959 10.003L6.32859 9.27156L4.9018 8.3877L3.80767 9.06528C3.59971 9.19406 3.59971 9.49657 3.80767 9.62536L4.78269 10.2292L5.96369 10.9606L10.1096 13.5278C10.4638 13.7472 10.9116 13.7472 11.2657 13.5278L15.4117 10.9606L16.5927 10.2292L17.5677 9.62536C17.7757 9.49657 17.7757 9.19406 17.5677 9.06528L16.4736 8.3877L15.0468 9.27156Z" fill="#868686"/>
  <path d="M6.0828 7.65527L7.50959 8.53872L8.6906 9.27012L10.1097 10.1488C10.4638 10.3681 10.9116 10.3681 11.2657 10.1488L12.6848 9.27012L13.8658 8.53872L15.2926 7.65527L16.4736 6.92387L17.5677 6.2463C17.7757 6.11751 17.7757 5.81499 17.5677 5.68621L11.2658 1.78374C10.9116 1.56442 10.4638 1.56443 10.1096 1.78374L3.80769 5.68621C3.59973 5.81499 3.59972 6.11751 3.80768 6.2463L4.9018 6.92387L6.0828 7.65527Z" fill="#868686"/>
</svg>