<svg xmlns="http://www.w3.org/2000/svg" width="19" height="19" viewBox="0 0 19 19" fill="none">
  <path d="M4.42755 5.3291L2.67037 11.9763C2.5477 12.4404 2.82024 12.9169 3.2824 13.0465L13.1793 15.822C13.7587 15.9845 14.361 15.6503 14.5297 15.0727L15.3283 12.3383H5.63533C4.96829 12.3383 4.42755 11.7975 4.42755 11.1305V5.3291Z" fill="#868686"/>
  <path d="M16.5106 6.42293V3.12991C16.5106 2.70543 16.1665 2.36133 15.742 2.36133H6.22987C5.80539 2.36133 5.46128 2.70543 5.46128 3.12991V3.47859H5.46094V7.72124L5.46128 8.6483V10.7192C5.46128 11.1437 5.80539 11.4878 6.22987 11.4878H15.742C16.1665 11.4878 16.5106 11.1437 16.5106 10.7192V8.30183L16.5109 6.42293H16.5106ZM6.32882 3.69404C6.32882 3.45148 6.52546 3.25485 6.76801 3.25485H15.2039C15.4464 3.25485 15.6431 3.45148 15.6431 3.69404V8.11883L13.5842 5.64306L13.3451 5.35554C13.1305 5.09763 12.7339 5.09995 12.5224 5.36035L10.1273 8.30969L9.13867 7.32182C8.92056 7.10387 8.56578 7.10825 8.35311 7.33151L6.32882 9.45661V3.69404Z" fill="#868686"/>
  <path d="M8.20941 6.34667C8.81704 6.34667 9.30945 5.83951 9.30945 5.21368C9.30945 4.90453 9.18904 4.62432 8.99436 4.41988H8.99402C8.79448 4.21079 8.51687 4.08105 8.20941 4.08105C8.1008 4.08105 7.996 4.09714 7.8971 4.12752C7.44182 4.26619 7.10938 4.70009 7.10938 5.21368C7.10938 5.83951 7.60214 6.34667 8.20941 6.34667Z" fill="#868686"/>
</svg>