<svg xmlns="http://www.w3.org/2000/svg" width="18" height="19" viewBox="0 0 18 19" fill="none">
  <path d="M8.70443 16.0018C7.69944 16.0018 6.69465 16.0018 5.68966 16.0018C5.46715 16.0018 5.40581 15.9393 5.41987 15.7178C5.4916 14.5902 5.99837 13.7324 6.95914 13.1633C7.37178 12.9188 7.82476 12.7962 8.29934 12.7835C8.73275 12.7719 9.1678 12.7546 9.59898 12.8344C10.8263 13.0619 11.8209 14.1201 11.9859 15.3804C12.0016 15.5002 12.0145 15.621 12.0187 15.7417C12.0253 15.9282 11.9533 16.0012 11.7699 16.0016C11.1012 16.0026 10.4324 16.002 9.76362 16.002C9.41049 16.002 9.05756 16.002 8.70443 16.002V16.0018Z" fill="#868686"/>
  <path d="M10.2946 10.8742C10.2954 11.765 9.58569 12.4924 8.71682 12.4908C7.85222 12.4893 7.14433 11.7636 7.14453 10.8789C7.14453 9.98929 7.85385 9.26772 8.72741 9.26856C9.58589 9.26918 10.2938 9.99448 10.2946 10.8742Z" fill="#868686"/>
  <path d="M6.46209 7.42383V9.02735C6.33168 9.0421 6.20106 9.05706 6.07065 9.07181C5.6786 9.11648 5.28675 9.16427 4.89429 9.20353C4.81156 9.21184 4.80055 9.24716 4.80076 9.31822C4.80218 10.3564 4.80178 11.3946 4.80178 12.433C4.80178 12.9998 4.55644 13.3389 4.01563 13.4764C3.58792 13.5853 3.18324 13.5161 2.84702 13.2069C2.45028 12.8421 2.47738 12.2834 2.90835 11.9595C3.32323 11.6479 3.77437 11.6209 4.24223 11.829C4.33453 11.8702 4.33311 11.8739 4.33311 11.7705C4.33311 10.5075 4.33311 9.24467 4.33311 7.98167C4.33311 7.94054 4.33188 7.89898 4.33779 7.85868C4.35552 7.73298 4.43173 7.65507 4.5546 7.64073C5.00004 7.58921 5.44569 7.54038 5.89092 7.48969C6.08145 7.46808 6.27156 7.44606 6.46188 7.42404L6.46209 7.42383Z" fill="#868686"/>
  <path d="M15.422 8.7961C15.4241 9.21703 15.2877 9.53844 15.1005 9.84136C14.8863 10.1881 14.6116 10.4823 14.316 10.7564C13.9207 11.1226 13.4903 11.442 13.0357 11.7281C12.9562 11.7781 12.8865 11.7794 12.8064 11.7289C12.2184 11.3582 11.6668 10.9402 11.1885 10.4283C10.9136 10.1339 10.675 9.8129 10.5263 9.43061C10.2493 8.71923 10.5193 7.90022 11.1553 7.52209C11.625 7.24265 12.2479 7.31994 12.6559 7.70762C12.7353 7.78325 12.8062 7.86636 12.8688 7.95694C12.903 8.00653 12.9366 8.00743 12.9695 7.95964C13.172 7.66649 13.4392 7.46641 13.7841 7.38621C14.3347 7.25802 14.9112 7.52666 15.2054 8.04212C15.3481 8.29206 15.4237 8.55966 15.4218 8.79631L15.422 8.7961Z" fill="#868686"/>
  <path d="M11.4371 4.6066C11.4371 5.22761 11.4371 5.8484 11.4371 6.46941C11.4371 6.5843 11.429 6.59033 11.3201 6.59968C10.5621 6.66492 9.89824 6.9562 9.32565 7.46585C9.21296 7.5662 9.107 7.6734 9.01001 7.78975C8.99595 7.80658 8.98168 7.83484 8.95805 7.82756C8.9285 7.81842 8.93584 7.78456 8.93563 7.76025C8.93482 7.57347 8.93502 7.38648 8.93502 7.1997C8.93502 6.20223 8.93584 5.20475 8.9336 4.20728C8.93339 4.11295 8.95784 4.0367 9.01327 3.96149C9.53431 3.25406 10.2196 2.81671 11.0722 2.6532C11.1661 2.63513 11.2621 2.62827 11.3566 2.61394C11.412 2.60563 11.4361 2.6291 11.4363 2.68374C11.4365 2.75272 11.4371 2.8217 11.4371 2.89068C11.4371 3.46265 11.4371 4.03483 11.4371 4.60681V4.6066Z" fill="#868686"/>
  <path d="M8.6672 5.95516C8.6672 6.53877 8.6672 7.12238 8.6672 7.70598C8.6672 7.72905 8.66862 7.75211 8.66658 7.77496C8.66475 7.79615 8.67677 7.82607 8.64845 7.83501C8.62685 7.84186 8.61564 7.81714 8.60281 7.80301C8.58569 7.7839 8.57061 7.76291 8.55329 7.744C7.98049 7.11199 7.27871 6.73157 6.4404 6.61792C6.38192 6.61003 6.32283 6.60213 6.26394 6.60068C6.19058 6.59881 6.15676 6.56889 6.16043 6.49056C6.16654 6.35863 6.16959 6.22629 6.1698 6.09415C6.17163 4.97867 6.17245 3.86339 6.17367 2.7479C6.17367 2.61057 6.17428 2.60746 6.30816 2.62429C7.27219 2.74479 8.0404 3.20644 8.61748 4.00197C8.65477 4.05349 8.66822 4.1071 8.66801 4.17005C8.66658 4.76508 8.6672 5.36012 8.6672 5.95536V5.95516Z" fill="#868686"/>
</svg>