<svg width="19" height="19" viewBox="0 0 19 19" fill="none" xmlns="http://www.w3.org/2000/svg">
  <path d="M8.69411 12.0098L7.12128 13.5826C6.78971 13.9142 6.2626 13.9142 5.92253 13.5911C5.82901 13.4976 5.73549 13.4126 5.64197 13.3191C4.76629 12.4349 3.97562 11.5082 3.26998 10.539C2.57283 9.5698 2.01171 8.60059 1.60363 7.63989C1.20404 6.67069 1 5.74399 1 4.85981C1 4.28169 1.10202 3.72907 1.30606 3.21897C1.51011 2.70036 1.83317 2.22426 2.28377 1.79917C2.82788 1.26356 3.42301 1 4.05214 1C4.29019 1 4.52824 1.05101 4.74078 1.15303C4.96183 1.25505 5.15737 1.40809 5.3104 1.62913L7.28282 4.40921C7.43585 4.62176 7.54637 4.8173 7.62289 5.00434C7.6994 5.18288 7.74191 5.36141 7.74191 5.52295C7.74191 5.72699 7.6824 5.93103 7.56338 6.12657C7.45285 6.32211 7.29132 6.52616 7.08728 6.7302L6.44114 7.40184C6.34762 7.49536 6.30511 7.60588 6.30511 7.74191C6.30511 7.80993 6.31361 7.86944 6.33062 7.93745C6.35612 8.00547 6.38163 8.05648 6.39863 8.10749C6.55166 8.38805 6.81522 8.75362 7.1893 9.19572C7.57188 9.63781 7.97996 10.0884 8.42206 10.539C8.50707 10.624 8.60059 10.709 8.68561 10.7941C9.02568 11.1256 9.03418 11.6697 8.69411 12.0098Z" fill="white" />
  <path d="M17.9796 14.8798C17.9796 15.1179 17.9371 15.3644 17.8521 15.6025C17.8266 15.6705 17.8011 15.7385 17.767 15.8065C17.6225 16.1126 17.4355 16.4016 17.1889 16.6737C16.7723 17.1328 16.3132 17.4643 15.7946 17.6769C15.7861 17.6769 15.7776 17.6854 15.7691 17.6854C15.2675 17.8894 14.7234 18 14.1368 18C13.2696 18 12.3429 17.7959 11.3652 17.3793C10.3875 16.9627 9.4098 16.4016 8.4406 15.696C8.10903 15.4494 7.77746 15.2029 7.46289 14.9393L10.243 12.1592C10.481 12.3378 10.6936 12.4738 10.8721 12.5673C10.9146 12.5843 10.9656 12.6098 11.0251 12.6353C11.0932 12.6608 11.1612 12.6693 11.2377 12.6693C11.3822 12.6693 11.4927 12.6183 11.5863 12.5248L12.2324 11.8872C12.4449 11.6746 12.649 11.5131 12.8445 11.4111C13.0401 11.2921 13.2356 11.2325 13.4481 11.2325C13.6097 11.2325 13.7797 11.2666 13.9668 11.3431C14.1538 11.4196 14.3493 11.5301 14.5619 11.6746L17.376 13.6726C17.597 13.8256 17.75 14.0041 17.8436 14.2167C17.9286 14.4292 17.9796 14.6418 17.9796 14.8798Z" fill="white" />
</svg>