<svg width="576" height="148" viewBox="0 0 576 148" fill="none" xmlns="http://www.w3.org/2000/svg">
<path d="M97.7094 38.7451C87.663 38.0501 79.4453 35.2251 71.8063 32.0413V22.7591C71.8063 14.2616 76.4823 9.41875 84.7231 9.41875C92.9639 9.41875 97.7325 14.2616 97.7325 22.7591V38.7451H97.7094ZM93.4269 1.45938C90.7185 0.517711 87.825 0.046875 84.7 0.046875C81.5749 0.046875 78.7045 0.517711 76.0656 1.45938C73.1952 2.46832 70.7183 3.94809 68.6581 5.89869C64.2136 9.95685 61.9219 15.8087 61.9219 22.7367V27.5796C57.0608 25.4048 50.6487 23.3645 45.6255 21.9744C38.7273 20.0238 32.2226 19.5529 25.6484 20.4049L27.0373 29.6871C31.8059 29.0593 36.1578 29.3732 40.3708 30.3149V46.9287C38.2411 47.6237 34.6994 48.4981 29.8383 48.4981C17.3844 48.4981 9.46769 40.6509 9.86122 28.6333C10.139 20.4273 15.8798 13.1406 24.3058 11.1676C30.9725 9.59812 37.3384 10.8761 42.269 14.5755L48.4264 7.24394C45.7875 5.29333 42.9171 3.81356 39.8847 2.71495C36.667 1.70601 33.3105 1.14549 29.8383 1.14549C25.3243 1.14549 21.1113 1.84054 17.3381 3.32031C13.6344 4.73281 10.4168 6.84037 7.80101 9.48602C2.70836 14.6428 0 21.7278 0 29.4629C0 37.1981 2.70836 44.3503 7.82416 49.4398C10.4631 52.0855 13.6576 54.193 17.3613 55.6055C21.1576 57.0853 25.3475 57.87 29.8614 57.87C40.9727 57.87 47.2227 54.4396 47.8709 54.0585L50.2552 52.7357V33.6332C54.1209 34.956 57.246 36.0546 61.9451 38.0052V57.3543H71.8063V42.2203C79.2832 45.1126 87.6861 47.5116 97.7094 48.1394V57.3319H107.571V22.7815C107.571 15.8311 105.186 9.97927 100.834 5.94354C98.7047 3.99293 96.2279 2.51316 93.4269 1.50422" fill="#000000"/>
<path d="M183.386 34.5981H178.779V10.9666H183.015C188.826 10.9666 194.15 14.5764 195.515 19.935C197.483 27.6477 191.302 34.5981 183.386 34.5981ZM183.386 1.61719H168.918V43.97H183.386C189.381 43.97 194.983 41.7952 199.173 37.737C203.363 33.7686 205.747 28.4548 205.747 22.8496C205.747 17.2445 203.363 11.8635 199.173 7.87258C194.983 3.88168 189.381 1.63961 183.386 1.63961" fill="#000000"/>
<path d="M139.604 31.7273H127.775V10.9656H139.951C146.618 10.9656 151.803 16.5708 150.762 22.9832C149.928 28.0951 145.067 31.7048 139.604 31.7048M193.656 52.6907C190.855 53.5427 186.179 54.6413 179.581 54.6413C167.984 54.6413 158.516 51.3678 151.456 44.8882C149.558 43.1618 148.169 41.4579 147.012 39.8884C150.067 38.9019 152.776 37.1979 155.09 34.8662C157.567 32.3999 159.373 29.3282 160.183 25.9875C161.873 19.1492 159.79 12.1988 154.674 7.35589C150.715 3.67888 145.553 1.59375 139.951 1.59375H117.914V57.2869H127.775V41.0767H137.243C138.632 43.5654 141.016 47.1527 144.813 50.7401C148.678 54.4171 153.285 57.2869 158.377 59.3272C164.628 61.9056 171.78 63.2284 179.605 63.2284C186.179 63.2284 192.105 62.3764 197.197 60.5828C201.133 59.26 203.123 57.8475 203.54 57.6232L198.054 50.7849C197.799 50.9419 196.341 51.7938 193.679 52.6907" fill="#000000"/>
<path d="M198.039 50.7383V50.7831L198.131 50.7383H198.039Z" fill="#000000"/>
<path d="M224.15 31.9525H250.146V22.603H224.15V10.9666H255.724V1.61719H214.266V57.3104H256.558L258.201 47.9385H224.15V31.9525Z" fill="#000000"/>
<path d="M305.98 36.6363L268.062 0.449219V57.3083H277.947V23.139L315.864 59.2589V1.6151H305.98V36.6363Z" fill="#000000"/>
<path d="M336.693 1.61719H326.832V57.3104H336.693V1.61719Z" fill="#000000"/>
<path d="M564.404 1.61719L552.645 20.6524L540.862 1.61719H529.195L547.691 29.688V57.2879H557.575V29.688L576.001 1.61719H564.404Z" fill="#000000"/>
<path d="M519.312 31.4339H491.349V22.6898C491.349 10.6723 501.141 9.34946 505.331 9.34946C509.521 9.34946 519.312 10.6723 519.312 22.6898V31.4339ZM514.289 1.41251C511.581 0.470836 508.525 0 505.331 0C502.136 0 499.081 0.470836 496.372 1.41251C493.409 2.42144 490.77 3.83395 488.548 5.78456C483.942 9.84272 481.465 15.6945 481.465 22.7122V57.2626H491.326V40.8058H519.289V57.2626H529.151V22.7122C529.151 15.6945 526.674 9.84272 522.067 5.78456C519.845 3.83395 517.206 2.44386 514.243 1.41251" fill="#000000"/>
<path d="M384.004 30.9427H356.041V22.1986C356.041 10.1811 365.832 8.85824 370.022 8.85824C374.212 8.85824 384.004 10.1811 384.004 22.1986V30.9427ZM378.981 1.45938C376.272 0.517711 373.217 0.046875 370.022 0.046875C366.828 0.046875 363.772 0.517711 361.064 1.45938C358.101 2.46832 355.462 3.88083 353.24 5.83143C348.633 9.88959 346.156 15.7414 346.156 22.7591V57.3095H356.017V40.8527H383.981V57.3095H393.842V22.7591C393.842 15.7414 391.365 9.88959 386.759 5.83143C384.536 3.88083 381.897 2.46832 378.934 1.45938" fill="#000000"/>
<path d="M457.25 47.8264H438.963V33.0511H457.25C461.278 33.0511 464.565 36.1003 464.565 40.4948C464.565 44.8893 461.255 47.8264 457.25 47.8264ZM438.963 17.222V10.9891H453.361C457.065 10.9891 460.028 14.0383 460.097 17.4687C460.005 20.899 457.065 23.7016 453.361 23.7016H438.963V17.222ZM429.102 57.3104H456.602C463.963 57.3104 468.361 54.0818 471 50.4272C475.329 44.4184 475.329 36.347 471 30.3382C470.074 29.0378 468.894 27.8271 467.458 26.7957C467.551 26.6836 467.621 26.5715 467.713 26.4594C471.695 20.9215 471.695 13.5002 467.713 7.96226C465.306 4.59915 461.232 1.61719 454.449 1.61719H429.125V57.3104H429.102Z" fill="#000000"/>
<path d="M179.423 142.192C181.807 142.192 183.126 141.609 183.983 140.69C184.793 139.883 185.256 138.807 185.256 137.618C185.256 136.43 184.793 135.354 183.983 134.547C183.126 133.627 181.807 133.067 179.423 133.067H172.571V142.215H179.423V142.192ZM172.571 127.282H177.386C179.515 127.282 180.487 126.812 181.182 126.072C181.784 125.444 182.2 124.592 182.2 123.673C182.2 122.753 181.784 121.901 181.182 121.274C180.464 120.556 179.515 120.063 177.386 120.063H172.571V127.282ZM177.802 114.301C181.807 114.301 184.029 115.22 185.765 116.655C187.733 118.292 189.052 120.691 189.052 123.448C189.052 125.668 187.941 127.91 186.761 129.076C189.909 130.578 192.085 133.941 192.085 137.686C192.085 140.533 190.812 143.111 188.844 144.95C186.876 146.833 184.122 147.977 179.561 147.977H165.719V114.301H177.802Z" fill="#000000"/>
<path d="M211.645 132.708V147.954H204.793V132.708L192.617 114.301H200.441L208.242 126.139L215.997 114.301H223.821L211.645 132.708Z" fill="#000000"/>
<path d="M251.367 134.749H260.395L255.881 124.794L251.367 134.749ZM238.288 147.977L253.497 114.301H258.312L273.52 147.977H266.367L263.011 140.533H248.752L245.395 147.977H238.242H238.288Z" fill="#000000"/>
<path d="M278.871 114.301H285.723V142.192H300.677V147.954H278.871V114.301Z" fill="#000000"/>
<path d="M328.269 123.831C326.301 121.476 323.408 120.086 319.195 120.086H314.125V142.216H319.195C323.408 142.216 326.301 140.826 328.269 138.471C329.889 136.543 330.862 133.942 330.862 131.162C330.862 128.382 329.889 125.781 328.269 123.853M318.431 114.324C324.056 114.324 327.76 115.49 330.653 117.508C335.028 120.58 337.714 125.579 337.714 131.162C337.714 136.745 335.028 141.745 330.653 144.816C327.76 146.834 324.056 148 318.431 148H307.273V114.324H318.431Z" fill="#000000"/>
<path d="M352.317 134.749H361.344L356.83 124.794L352.317 134.749ZM339.238 147.977L354.446 114.301H359.261L374.47 147.977H367.317L363.96 140.533H349.701L346.344 147.977H339.191H339.238Z" fill="#000000"/>
<path d="M392.367 127.281C394.358 127.281 395.214 126.9 395.816 126.272C396.418 125.645 396.835 124.681 396.835 123.716C396.835 122.708 396.418 121.743 395.816 121.116C395.214 120.488 394.358 120.062 392.367 120.062H386.696V127.281H392.367ZM386.696 133.044V147.953H379.844V114.277H392.784C396.441 114.277 398.779 115.241 400.538 116.766C402.46 118.492 403.687 120.959 403.687 123.649C403.687 126.34 402.46 128.784 400.538 130.532C399.566 131.407 398.409 132.079 396.997 132.505L410.284 147.953H401.812L389.173 133.044H386.696Z" fill="#000000"/>
</svg>
