<svg width="19" height="19" viewBox="0 0 19 19" fill="none" xmlns="http://www.w3.org/2000/svg">
  <path d="M17.986 8.9987C17.6971 4.06881 13.2181 0.269398 8.05931 1.11938C4.50677 1.70587 1.65964 4.58729 1.10722 8.14021C0.784257 10.1972 1.20922 12.1436 2.1356 13.7501L1.37919 16.5635C1.20921 17.201 1.79562 17.779 2.42453 17.6005L5.19518 16.8355C6.45302 17.575 7.92333 18 9.49563 18C14.289 18 18.2665 13.7756 17.986 8.9987ZM13.6516 12.6621C13.5751 12.8151 13.4816 12.9596 13.3626 13.0956C13.1501 13.3251 12.9207 13.4951 12.6657 13.5971C12.4107 13.7076 12.1303 13.7586 11.8328 13.7586C11.3994 13.7586 10.9319 13.6566 10.4475 13.4441C9.95456 13.2316 9.47015 12.9511 8.98571 12.6026C8.49278 12.2456 8.03382 11.8461 7.59188 11.4126C7.14994 10.9707 6.75897 10.5032 6.40201 10.0187C6.05356 9.53417 5.77311 9.04969 5.56914 8.5652C5.36516 8.08071 5.26319 7.61323 5.26319 7.17124C5.26319 6.88225 5.31418 6.60176 5.41616 6.34676C5.51815 6.08327 5.67964 5.84528 5.90911 5.63278C6.18108 5.36079 6.47852 5.23329 6.79298 5.23329C6.91197 5.23329 7.03093 5.25878 7.14141 5.30978C7.2519 5.36078 7.35391 5.43728 7.4304 5.54778L8.41625 6.94173C8.49274 7.05223 8.55224 7.14573 8.58624 7.23923C8.62873 7.33273 8.64574 7.41773 8.64574 7.50272C8.64574 7.60472 8.61175 7.70673 8.55226 7.80873C8.49277 7.91073 8.41625 8.01271 8.31427 8.11471L7.9913 8.4547C7.94031 8.5057 7.92335 8.55671 7.92335 8.62471C7.92335 8.65871 7.93181 8.6927 7.94031 8.7267C7.95731 8.7607 7.96584 8.7862 7.97434 8.8117C8.05083 8.9562 8.18679 9.13468 8.37376 9.35568C8.56924 9.57667 8.77325 9.80618 8.99422 10.0272C9.22369 10.2567 9.44465 10.4607 9.67412 10.6561C9.89509 10.8431 10.082 10.9707 10.2265 11.0472C10.252 11.0557 10.2775 11.0726 10.303 11.0811C10.337 11.0981 10.371 11.0982 10.4135 11.0982C10.49 11.0982 10.541 11.0727 10.592 11.0217L10.9149 10.6987C11.0254 10.5882 11.1274 10.5117 11.2209 10.4607C11.3229 10.4012 11.4164 10.3672 11.5269 10.3672C11.6119 10.3672 11.6969 10.3842 11.7903 10.4267C11.8838 10.4692 11.9858 10.5202 12.0878 10.5967L13.4986 11.5996C13.6091 11.6761 13.6856 11.7696 13.7366 11.8716C13.7791 11.9821 13.8046 12.0841 13.8046 12.2031C13.7536 12.3476 13.7196 12.5091 13.6516 12.6621Z" fill="white" />
</svg>