<svg width="296" height="76" viewBox="0 0 296 76" fill="none" xmlns="http://www.w3.org/2000/svg">
<path d="M50.2118 19.8955C45.049 19.5386 40.826 18.0879 36.9005 16.453V11.6865C36.9005 7.32291 39.3034 4.83602 43.5383 4.83602C47.7731 4.83602 50.2236 7.32291 50.2236 11.6865V19.8955H50.2118ZM48.011 0.74878C46.6193 0.265218 45.1323 0.0234375 43.5264 0.0234375C41.9204 0.0234375 40.4454 0.265218 39.0893 0.74878C37.6142 1.26688 36.3414 2.02676 35.2826 3.02843C32.9987 5.11235 31.821 8.11733 31.821 11.675V14.1618C29.3229 13.0451 26.0278 11.9973 23.4464 11.2835C19.9015 10.2818 16.5588 10.0401 13.1804 10.4776L13.8942 15.2441C16.3447 14.9217 18.5811 15.0829 20.7461 15.5665V24.0979C19.6517 24.4548 17.8317 24.9038 15.3336 24.9038C8.93367 24.9038 4.86534 20.8741 5.06757 14.703C5.21032 10.4891 8.16045 6.74724 12.4905 5.73407C15.9164 4.92813 19.1878 5.58439 21.7215 7.4841L24.8858 3.71923C23.5297 2.71757 22.0546 1.95768 20.4963 1.39353C18.8428 0.875427 17.1179 0.587592 15.3336 0.587592C13.0139 0.587592 10.8489 0.944507 8.90988 1.70439C7.00657 2.42973 5.35307 3.51199 4.00885 4.87056C1.3918 7.51864 0 11.1569 0 15.129C0 19.1011 1.3918 22.7738 4.02075 25.3874C5.37686 26.746 7.01846 27.8282 8.92178 28.5536C10.8727 29.3134 13.0258 29.7164 15.3455 29.7164C21.0554 29.7164 24.2672 27.9549 24.6003 27.7591L25.8256 27.0798V17.2705C27.8121 17.9497 29.4181 18.5139 31.8329 19.5156V29.4516H36.9005V21.6801C40.7428 23.1653 45.0609 24.3972 50.2118 24.7196V29.4401H55.2793V11.698C55.2793 8.12885 54.0541 5.12386 51.8177 3.05145C50.7233 2.04979 49.4504 1.28991 48.011 0.771806" fill="white"/>
<path d="M94.2385 17.7653H91.8713V5.63018H94.0482C97.034 5.63018 99.77 7.48383 100.472 10.2355C101.483 14.1961 98.3069 17.7653 94.2385 17.7653ZM94.2385 0.829102H86.8037V22.5779H94.2385C97.3195 22.5779 100.198 21.4611 102.351 19.3771C104.505 17.3393 105.73 14.6106 105.73 11.7323C105.73 8.85392 104.505 6.09071 102.351 4.04133C100.198 1.99195 97.3195 0.840615 94.2385 0.840615" fill="white"/>
<path d="M71.742 16.2913H65.6633V5.62997H71.9204C75.3464 5.62997 78.011 8.50831 77.4757 11.8011C77.0475 14.4262 74.5494 16.2798 71.742 16.2798M99.5184 27.0563C98.0791 27.4939 95.6761 28.058 92.2859 28.058C86.3261 28.058 81.4608 26.3771 77.8326 23.0497C76.8571 22.1632 76.1434 21.2881 75.5486 20.4822C77.1188 19.9756 78.5106 19.1006 79.7002 17.9032C80.973 16.6367 81.9009 15.0594 82.3173 13.3439C83.1856 9.83235 82.115 6.2632 79.4861 3.77632C77.4519 1.88813 74.7992 0.817383 71.9204 0.817383H60.5957V29.4166H65.6633V21.0924H70.5286C71.2424 22.3704 72.4676 24.2125 74.4185 26.0547C76.4051 27.9429 78.7723 29.4166 81.3894 30.4643C84.6012 31.7883 88.277 32.4676 92.2977 32.4676C95.6761 32.4676 98.7214 32.0301 101.338 31.109C103.361 30.4298 104.384 29.7044 104.598 29.5893L101.779 26.0777C101.648 26.1583 100.898 26.5958 99.5303 27.0563" fill="white"/>
<path d="M101.769 26.0547V26.0777L101.816 26.0547H101.769Z" fill="white"/>
<path d="M115.187 16.4067H128.546V11.6056H115.187V5.63018H131.413V0.829102H110.107V29.4283H131.841L132.685 24.6157H115.187V16.4067Z" fill="white"/>
<path d="M157.238 18.813L137.753 0.230469V29.4284H142.832V11.882L162.318 30.43V0.829164H157.238V18.813Z" fill="white"/>
<path d="M173.023 0.829102H167.955V29.4283H173.023V0.829102Z" fill="white"/>
<path d="M290.041 0.829102L283.998 10.6039L277.943 0.829102H271.947L281.452 15.2438V29.4168H286.531V15.2438L296 0.829102H290.041Z" fill="white"/>
<path d="M266.868 16.1417H252.498V11.6515C252.498 5.48036 257.53 4.80107 259.683 4.80107C261.837 4.80107 266.868 5.48036 266.868 11.6515V16.1417ZM264.287 0.725342C262.895 0.241781 261.325 0 259.683 0C258.042 0 256.472 0.241781 255.08 0.725342C253.557 1.24344 252.201 1.96879 251.059 2.97045C248.692 5.05437 247.419 8.05936 247.419 11.663V29.4051H252.487V20.9543H266.857V29.4051H271.924V11.663C271.924 8.05936 270.651 5.05437 268.284 2.97045C267.142 1.96879 265.786 1.25496 264.263 0.725342" fill="white"/>
<path d="M197.336 15.8889H182.966V11.3986C182.966 5.22748 187.998 4.54819 190.151 4.54819C192.304 4.54819 197.336 5.22748 197.336 11.3986V15.8889ZM194.755 0.74878C193.363 0.265218 191.793 0.0234375 190.151 0.0234375C188.51 0.0234375 186.939 0.265218 185.548 0.74878C184.025 1.26688 182.669 1.99222 181.527 2.99389C179.16 5.07781 177.887 8.08279 177.887 11.6865V29.4286H182.954V20.9778H197.324V29.4286H202.392V11.6865C202.392 8.08279 201.119 5.07781 198.752 2.99389C197.61 1.99222 196.254 1.26688 194.731 0.74878" fill="white"/>
<path d="M234.975 24.5581H225.577V16.9708H234.975C237.045 16.9708 238.734 18.5367 238.734 20.7933C238.734 23.0499 237.033 24.5581 234.975 24.5581ZM225.577 8.8424V5.64169H232.976C234.88 5.64169 236.402 7.20751 236.438 8.96905C236.391 10.7306 234.88 12.1698 232.976 12.1698H225.577V8.8424ZM220.51 29.4283H234.642C238.425 29.4283 240.685 27.7704 242.041 25.8937C244.265 22.8081 244.265 18.6633 242.041 15.5777C241.565 14.9099 240.958 14.2882 240.221 13.7586C240.269 13.701 240.304 13.6435 240.352 13.5859C242.398 10.7421 242.398 6.93119 240.352 4.08738C239.115 2.36038 237.021 0.829102 233.536 0.829102H220.522V29.4283H220.51Z" fill="white"/>
<path d="M92.2034 73.0179C93.4287 73.0179 94.1067 72.7186 94.5469 72.2465C94.9632 71.8321 95.2011 71.2794 95.2011 70.6692C95.2011 70.059 94.9632 69.5064 94.5469 69.0919C94.1067 68.6198 93.4287 68.332 92.2034 68.332H88.6823V73.0295H92.2034V73.0179ZM88.6823 65.3616H91.1566C92.251 65.3616 92.7506 65.1198 93.1075 64.7398C93.4167 64.4175 93.6309 63.9799 93.6309 63.5079C93.6309 63.0359 93.4167 62.5983 93.1075 62.276C92.7387 61.9075 92.251 61.6542 91.1566 61.6542H88.6823V65.3616ZM91.3707 58.6953C93.4286 58.6953 94.5706 59.1674 95.4628 59.9042C96.4739 60.7447 97.152 61.9766 97.152 63.3928C97.152 64.5326 96.581 65.6839 95.9743 66.2826C97.5921 67.054 98.7103 68.781 98.7103 70.7038C98.7103 72.166 98.0561 73.49 97.0449 74.4341C96.0338 75.4012 94.6182 75.9884 92.2748 75.9884H85.1611V58.6953H91.3707Z" fill="white"/>
<path d="M108.764 68.1478V75.9769H105.242V68.1478L98.9854 58.6953H103.006L107.015 64.7744L111 58.6953H115.021L108.764 68.1478Z" fill="white"/>
<path d="M129.176 69.1955H133.815L131.495 64.0836L129.176 69.1955ZM122.454 75.9884L130.27 58.6953H132.744L140.56 75.9884H136.884L135.159 72.166H127.831L126.106 75.9884H122.431H122.454Z" fill="white"/>
<path d="M143.309 58.6953H146.83V73.0179H154.514V75.9769H143.309V58.6953Z" fill="white"/>
<path d="M168.694 63.5887C167.683 62.3798 166.196 61.666 164.031 61.666H161.425V73.0297H164.031C166.196 73.0297 167.683 72.3158 168.694 71.1069C169.526 70.1168 170.026 68.7812 170.026 67.3536C170.026 65.9259 169.526 64.5904 168.694 63.6002M163.638 58.707C166.529 58.707 168.432 59.3057 169.919 60.3419C172.167 61.9193 173.547 64.4867 173.547 67.3536C173.547 70.2204 172.167 72.7879 169.919 74.3652C168.432 75.4014 166.529 76.0001 163.638 76.0001H157.904V58.707H163.638Z" fill="white"/>
<path d="M181.052 69.1955H185.691L183.371 64.0836L181.052 69.1955ZM174.33 75.9884L182.146 58.6953H184.62L192.436 75.9884H188.76L187.035 72.166H179.707L177.982 75.9884H174.307H174.33Z" fill="white"/>
<path d="M201.632 65.3613C202.655 65.3613 203.095 65.1656 203.404 64.8432C203.714 64.5209 203.928 64.0258 203.928 63.5307C203.928 63.0126 203.714 62.5175 203.404 62.1952C203.095 61.8728 202.655 61.654 201.632 61.654H198.717V65.3613H201.632ZM198.717 68.3203V75.9767H195.196V58.6836H201.846C203.726 58.6836 204.927 59.1787 205.831 59.9616C206.818 60.8481 207.449 62.1146 207.449 63.4962C207.449 64.8778 206.818 66.1327 205.831 67.0308C205.331 67.4798 204.737 67.8252 204.011 68.044L210.839 75.9767H206.485L199.99 68.3203H198.717Z" fill="white"/>
</svg>
