<svg width="300" height="240" viewBox="0 0 300 240" fill="none" xmlns="http://www.w3.org/2000/svg">
    <clippath id="amenities__icon-1">
<path d="M81.0469 140.05C86.6649 136.379 92.0102 132.87 97.371 129.386C104.095 125.025 110.687 120.42 117.622 116.449C121.386 114.297 120.942 112.51 118.986 109.334C112.129 98.1674 105.467 86.8704 98.8281 75.5491C86.6805 54.8313 95.3685 31.068 117.763 24.1728C143.149 16.36 168.613 8.7827 194.061 1.18102C208.625 -3.16395 223.242 4.8438 227.279 19.2269C231.588 34.5845 223.655 49.5443 208.664 54.141C193.352 58.8352 178.033 63.5294 162.652 67.9637C158.912 69.0439 158.904 70.2377 160.805 73.3645C169.766 88.1049 178.516 102.992 187.345 117.821C187.812 118.609 188.327 119.381 189.207 120.168C186.869 108.668 188.584 97.9156 194.513 88.0887C200.466 78.2292 209.077 72.0082 220.001 69.523C237.424 65.5598 255.447 74.6883 263.745 91.4834C271.623 107.434 268.108 128.119 255.439 140.358C240.556 154.725 222.705 155.318 201.565 141.625C204.674 146.855 207.409 151.371 210.043 155.951C210.728 157.153 212.31 158.388 211.336 159.882C210.526 161.141 208.936 160.24 207.674 160.167C180.613 158.494 154.416 151.339 127.869 146.466C113.407 143.818 98.8593 142.113 84.2104 141.284C83.3377 141.235 82.3715 141.43 81.0547 140.033L81.0469 140.05Z" fill="white"/>
<path d="M70.2472 200.887C97.4878 200.935 119.609 204.728 141.637 209.374C164.397 214.173 187.15 219.095 210.424 220.248C232.826 221.353 255.01 219.371 276.913 214.222C280.334 213.418 283.731 212.557 287.144 211.704C293.23 210.194 298.326 212.768 299.627 218.023C301.068 223.846 298.287 228.492 291.85 230.335C281.962 233.169 271.895 235.192 261.766 236.889C249.182 238.993 236.489 240.016 223.78 240C206.513 239.975 189.355 238.262 172.306 235.127C151.361 231.277 130.635 226.185 109.55 223.099C77.93 218.47 46.6765 219.956 15.8125 228.8C13.4516 229.474 11.114 230.489 8.59718 230.278C4.27264 229.921 0.797428 226.664 0.197447 222.539C-0.566165 217.325 1.66234 213.166 6.6414 211.485C14.4256 208.862 22.4123 207.027 30.4458 205.451C45.1337 202.56 59.9306 200.773 70.2316 200.895L70.2472 200.887Z" fill="white"/>
<path d="M74.9454 158.624C99.2641 157.925 123.076 162.798 146.857 167.85C172.306 173.25 197.832 178.131 223.904 177.985C244.717 177.863 265.272 174.94 285.453 169.466C293.027 167.411 298.317 169.661 299.665 175.622C301.068 181.851 297.577 186.302 290.113 188.251C265.054 194.772 239.667 198.2 213.814 197.209C193.539 196.429 173.584 193.059 153.73 188.86C134.92 184.88 116.118 180.738 96.9888 178.83C75.0467 176.645 53.1902 177.604 31.5753 182.387C25.2327 183.792 18.9523 185.465 12.6486 187.057C6.82026 188.527 1.83341 186.017 0.407481 180.828C-1.15091 175.143 1.8412 170.164 8.00464 168.386C29.8611 162.083 52.0136 157.99 74.9376 158.624H74.9454Z" fill="white"/>

</clippath>
</svg>
