<svg width="300" height="240" viewBox="0 0 300 240" fill="none" xmlns="http://www.w3.org/2000/svg">
<path d="M149.984 214.853C195.791 214.853 241.588 214.853 287.395 214.853C289.415 214.853 291.463 214.809 293.455 214.985C297.552 215.349 299.955 216.895 299.974 219.787C300.011 224.916 300.011 230.045 299.955 235.18C299.927 237.933 297.552 239.41 293.708 239.825C291.725 240.039 289.668 239.995 287.648 239.995C195.884 240.001 104.121 240.001 12.367 239.995C10.4966 239.995 8.60748 240.039 6.76511 239.882C2.48182 239.511 0.00349713 237.952 0.00349713 234.891C0.0128493 229.862 -0.0152072 224.84 0.0128493 219.812C0.0315536 216.92 2.407 215.362 6.50325 214.991C8.49526 214.809 10.5434 214.853 12.5634 214.853C58.3703 214.846 104.168 214.853 149.975 214.853H149.984Z" fill="black"/>
<path d="M80.0509 196.835C56.1368 196.835 32.211 196.682 8.29699 196.953C2.53032 197.023 1.16515 194.977 0.953308 189.498C0.188341 169.991 4.78991 152.682 19.136 138.619C30.7988 127.178 44.9095 121.558 60.9855 121.287C75.6611 121.04 90.372 120.523 105.059 121.828C134.034 124.415 157.783 148.696 159.313 177.528C159.996 190.407 153.966 196.847 141.225 196.847C120.841 196.847 100.446 196.847 80.0626 196.847L80.0509 196.835Z" fill="black"/>
<path d="M241.396 196.932C223.682 196.932 205.959 196.801 188.245 197.029C183.765 197.09 182.701 195.532 182.562 191.243C182.082 177.046 185.464 164.415 195.647 154.052C204.381 145.159 215.104 140.905 227.335 140.695C238.354 140.511 249.399 140.047 260.409 141.124C282.081 143.242 299.568 162.218 299.925 184.092C299.969 186.858 299.795 189.641 299.978 192.398C300.196 195.794 298.827 197.02 295.427 196.985C282.647 196.854 269.867 196.932 257.088 196.941C251.857 196.941 246.635 196.941 241.405 196.941L241.396 196.932Z" fill="black"/>
<path d="M240.747 129.728C219.902 129.728 202.439 112.085 202.447 91.0254C202.456 69.9918 219.945 52.2351 240.712 52.1739C261.843 52.1215 279.064 69.6597 279.021 91.2002C278.986 112.496 261.869 129.72 240.747 129.72V129.728Z" fill="black"/>
<path d="M80.0974 103.946C51.1935 103.887 28.1974 80.9464 28.1738 52.1853C28.1621 23.7769 51.6171 0.213039 80.121 0.00138733C108.531 -0.210264 132.456 23.824 132.374 52.5028C132.292 81.0992 109.013 104.005 80.0974 103.946Z" fill="black"/>
</svg>
