<svg width="300" height="240" viewBox="0 0 300 240" fill="none" xmlns="http://www.w3.org/2000/svg">
<path d="M149.818 239.97C101.768 239.97 53.7267 239.97 5.67618 239.97C1.93149 239.97 0.0528765 238.408 0.0403315 235.286C0.0403315 232.74 0.162645 230.177 0.0121053 227.638C-0.129026 225.22 0.952981 224.192 3.83206 224.272C7.59556 224.377 11.3685 224.208 15.132 224.313C17.757 224.393 18.9237 223.622 18.839 221.26C18.6979 217.163 18.6979 213.05 18.839 208.953C18.9237 206.599 17.757 205.812 15.132 205.884C11.3685 205.989 7.59556 205.828 3.83206 205.924C0.971798 205.997 -0.110209 204.96 0.0121053 202.542C0.172054 199.329 0.153237 196.108 0.0121053 192.902C-0.0725735 190.725 1.07529 189.898 3.47453 189.906C7.10631 189.922 10.7569 189.753 14.3793 189.93C17.7947 190.099 18.8767 188.982 18.8578 186.082C18.7261 171.228 18.792 156.367 18.8014 141.513C18.8014 136.468 18.8108 136.46 24.5219 136.46C65.5535 136.46 106.594 136.46 147.626 136.46C153.3 136.46 153.318 136.476 153.318 141.184C153.318 156.037 153.412 170.899 153.252 185.753C153.215 188.934 154.334 190.163 158.117 189.938C161.73 189.721 165.38 189.93 169.022 189.914C171.43 189.914 172.597 190.846 172.559 192.942C172.512 196.268 172.512 199.594 172.559 202.92C172.597 205.009 171.505 205.94 169.031 205.908C164.872 205.852 160.723 205.956 156.564 205.9C154.278 205.868 153.262 206.615 153.3 208.64C153.384 212.962 153.394 217.291 153.3 221.613C153.252 223.67 154.344 224.313 156.602 224.305C169.069 224.264 181.535 224.224 194.002 224.313C197.681 224.337 197.389 222.328 197.389 220.296C197.389 199.008 197.389 177.719 197.389 156.431C197.389 150.334 197.304 144.236 197.427 138.139C197.474 135.761 196.523 134.926 193.644 134.725C175.006 133.399 161.513 121.791 160.093 105.773C159.848 103.041 158.653 102.005 155.774 101.226C147.692 99.0329 141.793 94.4458 138.217 87.9469C136.881 85.5047 135.235 84.7094 132.262 84.854C122.138 85.328 112.663 83.8659 104.496 78.1462C93.6763 70.5627 89.4329 57.9504 94.0338 46.278C98.39 35.2241 111.035 26.9819 124.575 26.8293C128.714 26.7811 130.512 25.7528 131.998 22.3065C137.869 8.60169 152.754 0.054225 169.915 0.030125C191.471 -0.0100417 213.026 -0.0100417 234.582 0.030125C252.957 0.0622583 268.632 10.0959 273.666 25.1102C274.287 26.9498 275.331 27.7933 277.354 28.444C293.368 33.6175 302.438 47.0894 299.427 61.0111C296.435 74.8606 282.256 84.7657 265.264 84.8701C264.483 84.8701 263.692 84.9504 262.93 84.8621C259.035 84.4122 256.815 85.4887 254.848 88.8064C249.382 98.0126 239.926 102.318 227.967 102.728C225.248 102.825 222.51 102.833 219.791 102.736C217.081 102.64 216.131 103.692 216.141 105.925C216.197 118.233 216.141 130.54 216.197 142.847C216.216 145.835 217.825 146.542 220.958 145.048C223.329 143.907 225.126 142.252 225.258 139.842C225.399 137.352 226.923 136.621 229.539 136.669C233.302 136.733 237.066 136.693 240.839 136.709C243.078 136.709 244.019 137.537 243.943 139.585C243.501 150.526 233.5 160.199 220.873 161.355C217.185 161.693 216.094 162.922 216.112 165.959C216.235 184.034 216.244 202.1 216.103 220.175C216.075 223.349 217.213 224.377 220.977 224.361C245.392 224.24 269.799 224.297 294.214 224.305C299.766 224.305 299.766 224.321 299.775 229.125C299.775 231.784 299.681 234.451 299.794 237.11C299.888 239.295 298.749 240.122 296.303 239.986C295.014 239.913 293.706 239.986 292.408 239.986C244.884 239.986 197.351 239.986 149.828 239.986L149.818 239.97ZM85.8294 224.289C100.742 224.289 115.655 224.208 130.559 224.345C134.012 224.377 135.15 223.397 134.971 220.513C134.736 216.761 134.802 212.986 134.952 209.226C135.047 206.832 134.096 205.772 131.17 205.884C127.679 206.021 124.17 205.908 120.67 205.908C94.476 205.908 68.2914 205.981 42.0975 205.836C38.0893 205.812 36.8097 206.88 37.1108 210.206C37.4119 213.508 37.3837 216.858 37.1108 220.159C36.8568 223.3 38.0329 224.401 41.8717 224.353C56.5211 224.184 71.1705 224.28 85.8199 224.28L85.8294 224.289ZM85.6224 189.89C99.3874 189.89 113.152 189.906 126.917 189.89C135.903 189.882 134.858 190.484 134.905 183.15C134.934 178.587 134.905 178.571 129.495 178.571C101.58 178.571 73.6638 178.547 45.7481 178.579C35.9441 178.595 37.4495 177.615 37.1202 185.769C36.9885 188.982 38.2775 189.986 42.0034 189.946C56.5399 189.801 71.0858 189.89 85.6318 189.89H85.6224ZM197.37 111.332C197.37 109.565 197.267 107.797 197.398 106.038C197.568 103.62 196.382 102.64 193.541 102.728C189.796 102.841 186.051 102.817 182.307 102.744C179.616 102.688 178.647 103.66 178.788 105.942C179.098 111.067 183.699 116.256 189.777 118.08C196.57 120.112 197.38 119.638 197.389 113.654C197.389 112.882 197.389 112.111 197.389 111.34L197.37 111.332Z" fill="black"/>
</svg>
