<svg width="300" height="240" viewBox="0 0 300 240" fill="none" xmlns="http://www.w3.org/2000/svg">
<path d="M149.529 124.773C140.826 124.773 132.123 124.826 123.43 124.751C118.857 124.709 114.83 125.759 112.77 130.974C110.841 135.851 112.77 139.72 115.564 143.335C123.223 153.279 130.806 163.297 138.521 173.188C140.177 175.308 140.892 177.492 140.882 180.301C140.807 198.588 140.77 216.885 140.911 235.172C140.939 238.956 140.149 240.26 136.536 239.921C116.693 238.055 97.8196 232.924 81.3923 219.525C63.7702 205.15 55.1519 185.146 54.0229 161.071C52.6775 132.48 59.6774 105.744 69.8481 79.9728C78.5698 57.859 89.9823 37.6959 106.09 21.3173C117.53 9.67735 130.524 1.54636 146.255 0.178826C158.909 -0.923681 170.425 3.13651 181.029 10.5678C198.952 23.13 211.484 41.3108 221.739 61.6118C234.591 87.0754 243.163 114.278 245.59 143.547C247.933 171.799 242.297 197.22 222.135 216.302C207.749 229.924 190.503 235.999 172.194 238.829C168.854 239.349 165.476 239.497 162.127 239.942C160.001 240.228 158.975 239.486 158.984 236.921C159.022 217.457 159.022 197.994 158.984 178.541C158.984 176.241 160.151 174.767 161.346 173.209C169.08 163.138 176.785 153.046 184.519 142.985C187.229 139.455 188.904 135.639 187.06 130.964C185.168 126.151 181.518 124.751 177.181 124.762C167.96 124.783 158.74 124.762 149.52 124.762L149.529 124.773ZM127.889 84.8598C127.899 77.3861 122.677 71.3965 116.11 71.3541C109.703 71.3117 104.133 77.6511 104.236 84.8598C104.349 92.2911 109.637 98.0263 116.326 97.9733C122.856 97.9203 127.88 92.2381 127.889 84.8598ZM183.71 97.9733C190.371 97.9309 195.64 92.0261 195.612 84.6372C195.584 77.5663 190.24 71.4919 183.927 71.3541C177.265 71.2057 171.855 77.4179 171.959 85.0718C172.053 92.4184 177.162 98.0157 183.72 97.9627L183.71 97.9733Z" fill="black"/>
<path d="M78.5315 24.7616C74.4858 30.9844 70.4119 37.1648 66.8273 43.7374C51.8583 71.2471 41.5748 100.729 37.548 132.765C35.591 148.327 35.4404 163.942 38.4794 179.42C39.4767 184.487 39.0533 185.07 34.5843 185.325C13.6597 186.501 0.478349 172.381 0.0173314 148.719C-0.349601 129.913 5.14498 113.068 13.161 97.103C27.2644 69.0103 45.818 45.5184 70.3837 28.4613C72.7829 26.797 75.3232 25.3976 77.7976 23.8711C78.0423 24.1679 78.2869 24.4648 78.5221 24.7722L78.5315 24.7616Z" fill="black"/>
<path d="M221.42 24.7842C228.843 27.3814 235.09 32.0459 240.98 37.2192C263.391 56.8947 280.919 81.0226 292.492 110.366C298.438 125.43 301.91 141.205 298.889 157.753C295.201 178.022 281.502 187.457 263.41 185.21C260.427 184.838 260.691 182.676 261.18 180.418C263.551 169.509 263.88 158.421 263.466 147.29C262.704 126.787 258.47 107.091 252.138 87.9451C244.847 65.8844 235.307 45.1912 222.389 26.5758C222.003 26.0245 221.73 25.3778 221.41 24.7842H221.42Z" fill="black"/>
</svg>
